<?xml version="1.0" encoding="UTF-8" standalone="no"?>
<!-- Created with Inkscape (http://www.inkscape.org/) -->

<svg
 xmlns:dc="http://purl.org/dc/elements/1.1/"
 xmlns:cc="http://creativecommons.org/ns#"
 xmlns:rdf="http://www.w3.org/1999/02/22-rdf-syntax-ns#"
 xmlns:svg="http://www.w3.org/2000/svg"
 xmlns="http://www.w3.org/2000/svg"
 xmlns:sodipodi="http://sodipodi.sourceforge.net/DTD/sodipodi-0.dtd"
 xmlns:inkscape="http://www.inkscape.org/namespaces/inkscape"
 id="svg2"
 version="1.1"
 inkscape:version="0.91 r13725"
 width="200"
 height="38"
 viewBox="0 0 200 38"
 sodipodi:docname="pelican-logo.svg">
 <symbol viewBox="0 0 200 38" id="logo">
     <metadata
       id="metadata8">
       <rdf:RDF>
          <cc:Work
           rdf:about="">
           <dc:format>image/svg+xml</dc:format>
           <dc:type
             rdf:resource="http://purl.org/dc/dcmitype/StillImage" />
             <dc:title></dc:title>
         </cc:Work>
     </rdf:RDF>
 </metadata>
 <defs
   id="defs6" />

   <sodipodi:namedview
       pagecolor="#ffffff"
       bordercolor="#666666"
       borderopacity="1"
       objecttolerance="10"
       gridtolerance="10"
       guidetolerance="10"
       inkscape:pageopacity="0"
       inkscape:pageshadow="2"
       inkscape:window-width="1213"
       inkscape:window-height="695"
       id="namedview4"
       showgrid="false"
       inkscape:zoom="2.7835315"
       inkscape:cx="84.688737"
       inkscape:cy="34.193182"
       inkscape:window-x="53"
       inkscape:window-y="0"
       inkscape:window-maximized="0"
       inkscape:current-layer="layer1" />

       <g
           inkscape:groupmode="layer"
           id="layer1"
           inkscape:label="Layer 1"
           transform="translate(0,-322)">
           <path
             d="m 2.477021,359.82306 c -1.75912884,-0.1012 -1.77541095,-0.11014 -2.12109884,-1.16506 -0.83356337,-2.54374 -0.12535673,-13.51169 1.31766434,-20.40655 0.3653483,-1.74566 0.8226641,-4.40745 1.0162573,-5.91507 0.1935921,-1.50762 0.4607583,-2.88202 0.5936969,-3.05422 0.3168963,-0.41047 4.7990309,-0.31324 5.6057889,0.1216 0.3351449,0.18064 0.7812801,0.71963 0.991412,1.19773 0.2101284,0.47811 0.4667684,0.86928 0.5703154,0.86928 0.103542,0 0.443894,-0.43636 0.756339,-0.96969 1.270972,-2.16951 3.755513,-3.25963 5.43528,-2.38479 1.981468,1.03197 2.936511,3.10114 2.929627,6.34725 -0.0088,4.13474 -0.89438,7.28646 -2.888619,10.28007 -2.000844,3.00353 -3.656413,4.08477 -5.101841,3.33197 -1.525124,-0.79429 -2.096066,-2.36556 -1.466014,-4.03454 0.344634,-0.91293 0.937992,-0.94804 1.536588,-0.0909 l 0.453402,0.64922 0.569131,-0.72136 c 0.964734,-1.22277 2.018837,-5.0193 2.504513,-9.02049 0.620601,-5.11265 0.182464,-6.31818 -1.742141,-4.79348 -1.626846,1.28881 -2.823293,3.86603 -3.316056,7.14303 -0.1579723,1.05051 -0.5355504,3.40322 -0.8390659,5.22824 -0.6978117,4.19587 -1.1179153,8.11728 -1.3557617,12.65529 -0.15649,2.98574 -0.27598,3.64983 -0.7340337,4.07962 -0.5229256,0.49066 -1.9376182,0.9282 -2.620335,0.81043 -0.1772699,-0.0305 -1.1200423,-0.10148 -2.0950487,-0.15757 z m 173.842159,-3.54898 c -6.38301,-0.61994 -9.24721,-2.4303 -11.67618,-7.38005 -0.92294,-1.88078 -1.0157,-2.28047 -0.91154,-3.9279 0.15482,-2.44879 0.761,-3.24347 4.35079,-5.70379 3.50058,-2.39918 3.97661,-2.79378 4.6368,-3.84372 0.50185,-0.79811 0.49855,-0.82566 -0.17906,-1.49875 -0.67523,-0.67072 -0.72754,-0.67686 -2.39671,-0.28117 -1.54688,0.36672 -5.01072,0.69615 -11.95663,1.13718 -1.38526,0.0879 -2.56153,0.0411 -2.65162,-0.10577 -0.23703,-0.38627 13.70681,-10.64941 15.82678,-11.64904 3.30642,-1.55909 5.77475,-1.02397 7.00411,1.51843 0.48797,1.00914 0.65484,1.95844 0.7366,4.19014 0.22708,6.19882 -1.7677,10.35997 -6.60449,13.77699 -0.91212,0.64438 -1.60399,1.22642 -1.53747,1.2934 0.0665,0.067 1.34751,-0.2739 2.84665,-0.75755 5.5905,-1.80356 10.1435,-1.84294 14.88357,-0.12871 3.79372,1.37199 8.82239,4.39988 10.4965,6.32018 0.76722,0.88007 0.9057,1.23436 0.76312,1.95235 -0.3553,1.78924 -1.84855,2.7154 -6.10082,3.78398 -5.20321,1.30754 -12.16265,1.82514 -17.53041,1.30379 z m -96.148079,-2.78979 c -1.391584,-0.33299 -4.090444,-1.70058 -4.953656,-2.51016 -1.328776,-1.2462 -1.85792,-3.29656 -1.847548,-7.15895 0.0046,-1.71112 -0.03756,-3.11113 -0.09364,-3.11113 -0.237132,0 -1.41477,1.44237 -2.826969,3.46247 -1.848236,2.64384 -5.529012,6.22293 -6.650021,6.4663 -0.908163,0.19716 -4.349387,-0.69581 -5.430348,-1.40913 -0.93842,-0.61926 -1.503663,-1.8414 -1.723691,-3.72688 -0.103,-0.88263 -0.287505,-1.54241 -0.41,-1.46616 -0.1225,0.0762 -0.767768,1.1388 -1.433929,2.36125 -1.274656,2.33906 -3.598172,5.05464 -4.908985,5.73733 -0.970447,0.50542 -2.252419,0.50969 -4.100696,0.0137 -4.18032,-1.12189 -5.550127,-3.32666 -5.179731,-8.33705 0.203508,-2.7528 -0.0052,-3.10332 -0.94019,-1.57957 -0.809285,1.31879 -4.397641,4.7416 -6.665159,6.35766 -3.30929,2.35854 -4.516175,2.60892 -8.558845,1.77565 -3.788036,-0.78078 -4.714817,-2.00436 -4.472292,-5.90452 0.19646,-3.15941 1.032172,-6.11359 2.673046,-9.44899 1.415921,-2.87815 3.128142,-4.79624 5.56213,-6.23088 1.446208,-0.85243 1.609908,-0.84403 5.641228,0.2898 2.660262,0.74822 3.115221,1.80249 2.16736,5.0224 -0.949402,3.22512 -2.79535,5.75951 -5.049506,6.93272 -1.649127,0.85831 -1.987143,1.60494 -2.037441,4.50044 -0.0563,3.24189 0.18414,3.31962 3.420276,1.10572 2.872634,-1.96523 6.021376,-5.27844 7.594449,-7.99113 0.633292,-1.09208 1.595031,-2.43236 2.137207,-2.9784 0.542169,-0.54604 0.98576,-1.14686 0.98576,-1.33514 0,-1.17991 3.88794,-7.99764 5.699117,-9.99373 1.290055,-1.42176 2.398912,-1.95419 4.657004,-2.23606 1.417569,-0.17696 1.692625,-0.12682 2.22034,0.40466 0.740232,0.74552 0.745329,1.11198 0.05296,3.80655 -0.670083,2.60786 -2.222876,6.07827 -3.707044,8.28506 -0.60796,0.90398 -1.651616,2.68234 -2.319244,3.95191 l -1.213857,2.30832 0.108281,3.17394 c 0.1249,3.66116 0.548104,4.90518 1.668676,4.90518 0.580115,0 1.031531,-0.48585 2.431355,-2.61684 3.094542,-4.7109 5.177013,-8.77179 6.426298,-12.53151 1.634076,-4.91771 1.671115,-4.98309 2.731287,-4.82046 3.748977,0.57508 5.596937,1.87446 5.596937,3.93541 0,0.6191 -0.500044,2.53223 -1.111212,4.25142 -1.552508,4.36713 -2.47058,8.65792 -2.073325,9.69007 0.167981,0.43641 0.408141,0.79348 0.533713,0.79348 0.48458,0 2.40874,-1.83771 3.270892,-3.12393 0.497116,-0.74164 1.57356,-2.19242 2.3921,-3.22394 0.818536,-1.03153 1.962084,-2.73884 2.541221,-3.79403 0.72416,-1.31941 1.26804,-1.97286 1.741708,-2.0926 0.378808,-0.0958 0.975368,-0.59577 1.325692,-1.11116 1.119092,-1.64637 2.650023,-3.11164 4.326792,-4.14121 l 1.631008,-1.00147 2.454348,1.2023 c 4.115776,2.01616 4.993944,3.59994 3.825144,6.89861 -0.576708,1.62761 -0.758916,1.8755 -1.378584,1.8755 -0.672004,0 -0.719176,-0.1019 -0.801388,-1.73123 -0.04804,-0.95219 -0.18998,-1.83525 -0.315408,-1.96235 -0.333724,-0.33817 -2.679912,2.17133 -3.570136,3.81864 -1.635869,3.02708 -2.393804,8.36992 -1.494772,10.53696 0.74716,1.80096 2.070616,2.0532 3.69546,0.7043 1.210604,-1.00499 5.02402,-6.71513 7.372381,-11.03926 1.566848,-2.8851 2.056352,-3.4073 2.641512,-2.81796 0.1785,0.17978 0.423748,0.32685 0.545008,0.32685 0.12126,0 0.8602,-0.95481 1.642108,-2.12182 1.885068,-2.8135 2.891835,-3.64899 4.397008,-3.64899 3.35088,0 8.5236,1.67525 8.5236,2.76049 0,0.23314 -0.64854,0.58721 -1.5694,0.85681 -2.26333,0.66268 -2.98743,1.81539 -4.54093,7.2288 -1.43313,4.99396 -1.52213,5.88923 -0.58543,5.88923 0.57706,0 2.64023,-3.33104 2.83616,-4.57904 0.32406,-2.06415 0.99133,-4.59864 1.56647,-5.94996 l 0.58519,-1.37495 1.34588,0.15279 c 1.55631,0.17667 2.6547,1.19595 2.65292,2.46183 -4e-4,0.42756 -0.3199,2.40043 -0.70954,4.38414 -0.87221,4.44051 -0.93652,6.14329 -0.2268,6.00563 0.54956,-0.10659 4.69713,-6.91912 6.2667,-10.29327 0.54331,-1.16797 1.2385,-2.33655 1.54485,-2.59686 0.40519,-0.34425 0.68516,-1.2598 1.02708,-3.35866 0.25852,-1.58698 0.57273,-2.99657 0.69823,-3.13245 0.23341,-0.25271 3.72531,0.21145 5.32051,0.70722 1.30208,0.40468 2.07964,1.27162 2.44261,2.72339 0.17722,0.70884 0.37701,1.2888 0.44398,1.2888 0.067,0 0.7943,-0.69379 1.61633,-1.54178 2.32874,-2.40225 4.0646,-2.73528 5.94615,-1.14076 1.7291,1.46531 2.04976,3.23553 1.24382,6.86637 -1.1442,5.15476 -1.25173,5.93736 -0.89487,6.51286 0.4566,0.73634 1.11692,0.70329 1.85577,-0.0929 0.74708,-0.80499 3.2936,-4.72069 4.08117,-6.27547 0.32163,-0.63493 0.79165,-1.15443 1.04451,-1.15443 0.75066,0 0.26235,1.57038 -1.39068,4.47237 -2.69727,4.73524 -4.94184,6.78064 -6.88078,6.27027 -2.35308,-0.61938 -4.28274,-3.02846 -4.46564,-5.57513 -0.12306,-1.71344 0.38923,-4.44927 1.36779,-7.30459 0.62002,-1.80914 0.73865,-2.7681 0.34244,-2.7681 -0.43088,0 -2.52659,2.71236 -3.33101,4.31113 -0.48618,0.96628 -0.99481,2.76951 -1.34103,4.75426 -0.30677,1.75866 -0.74473,4.10646 -0.97325,5.21734 -0.22853,1.11087 -0.41561,2.29441 -0.41574,2.63007 -1.3e-4,0.33567 -0.28125,0.97014 -0.62475,1.40992 -0.61852,0.79193 -0.64868,0.79803 -3.14428,0.63519 -3.39205,-0.22132 -3.97876,-0.53845 -4.64706,-2.51177 -0.48784,-1.44049 -0.50662,-1.87495 -0.20425,-4.72552 0.18314,-1.72657 0.27241,-3.20021 0.19838,-3.27477 -0.074,-0.0745 -0.48146,0.55379 -0.90538,1.39634 -1.26112,2.50645 -3.74101,6.39366 -4.71448,7.38993 -1.17938,1.20698 -2.49624,1.46206 -3.91976,0.75925 -0.96532,-0.47658 -1.48455,-1.06148 -2.54783,-2.87002 -0.28539,-0.48543 -0.40434,-0.43106 -1.43247,0.65464 -1.56234,1.64982 -2.52299,1.85326 -5.937268,1.25736 -2.442736,-0.42633 -2.911516,-0.60555 -3.766132,-1.43978 -0.658144,-0.64245 -1.087776,-1.42163 -1.3189,-2.39191 -0.329508,-1.38335 -0.245376,-3.85114 0.16726,-4.90614 0.427772,-1.0937 -0.38938,-0.42418 -1.110176,0.90961 -1.2246,2.26605 -5.577825,8.41691 -7.017441,9.91526 -1.635536,1.70225 -3.272464,2.23485 -5.344732,1.73898 z M 31.715885,337.50822 c 1.139114,-0.90242 2.403018,-2.90648 2.777395,-4.40386 1.010497,-4.04169 -1.831088,-1.69339 -3.333228,2.75461 -0.382768,1.13341 -0.695942,2.10293 -0.695942,2.15448 0,0.26175 0.578212,0.0284 1.251775,-0.50523 z m 20.088958,-5.0201 c 0.525672,-0.95629 1.353824,-2.88518 1.840336,-4.28642 1.547832,-4.45805 0.983713,-5.34413 -0.937701,-1.47287 -1.028987,2.07319 -3.048159,7.56355 -3.048159,8.28829 0,0.59474 1.21688,-0.83964 2.145524,-2.529 z m 11.892761,-5.92254 c -0.786417,-0.79202 -0.79094,-2.88585 -0.0078,-3.59966 1.165744,-1.06251 3.732216,0.26593 3.732216,1.93184 0,1.83884 -2.460588,2.9407 -3.72444,1.66782 z"
             id="path4138"
             inkscape:connector-curvature="0" />
         </g>
     </symbol>
 </svg>
